<svg width="17" height="15" viewBox="0 0 17 15" fill="none" xmlns="http://www.w3.org/2000/svg">
<path d="M15.0096 15C15.4517 15 15.8756 14.8244 16.1881 14.5118C16.5007 14.1993 16.6763 13.7754 16.6763 13.3333V9.26333C16.6763 8.82131 16.5007 8.39738 16.1881 8.08482C15.8756 7.77226 15.4517 7.59667 15.0096 7.59667H12.6963C12.6963 7.01167 12.7313 6.425 12.7996 5.84C12.903 5.22 13.0763 4.66833 13.3163 4.18667C13.558 3.70333 13.868 3.325 14.248 3.04833C14.6263 2.73833 15.108 2.58333 15.6946 2.58333V0C14.7296 0 13.8863 0.206667 13.1613 0.62C12.4426 1.02914 11.8247 1.59409 11.353 2.27333C10.8795 3.02219 10.5305 3.84283 10.3196 4.70333C10.1071 5.65293 10.0031 6.6236 10.0096 7.59667V13.3333C10.0096 13.7754 10.1852 14.1993 10.4978 14.5118C10.8103 14.8244 11.2343 15 11.6763 15H15.0096ZM5.00963 15C5.45165 15 5.87558 14.8244 6.18814 14.5118C6.5007 14.1993 6.67629 13.7754 6.67629 13.3333V9.26333C6.67629 8.82131 6.5007 8.39738 6.18814 8.08482C5.87558 7.77226 5.45165 7.59667 5.00963 7.59667H2.69629C2.69629 7.01167 2.73129 6.425 2.79963 5.84C2.90296 5.22 3.07629 4.66833 3.31629 4.18667C3.55796 3.70333 3.86796 3.325 4.24796 3.04833C4.62629 2.73833 5.10796 2.58333 5.69463 2.58333V0C4.72963 0 3.88629 0.206667 3.16129 0.62C2.4426 1.02914 1.8247 1.59409 1.35296 2.27333C0.879502 3.02219 0.530535 3.84283 0.319627 4.70333C0.107104 5.65293 0.00310409 6.6236 0.00962718 7.59667V13.3333C0.00962718 13.7754 0.185222 14.1993 0.497782 14.5118C0.810343 14.8244 1.23427 15 1.67629 15H5.00963Z" fill="url(#paint0_linear_68_332)"/>
<defs>
<linearGradient id="paint0_linear_68_332" x1="8.34282" y1="0" x2="8.34282" y2="15" gradientUnits="userSpaceOnUse">
<stop stop-color="#10B5CB"/>
<stop offset="1" stop-color="#0073A8"/>
</linearGradient>
</defs>
</svg> 